<svg width="24" height="24" viewBox="0 0 24 24" fill="none" xmlns="http://www.w3.org/2000/svg">
<path d="M20.9898 17.2053C20.9469 16.9399 20.7805 16.713 20.5313 16.5782L16.8452 14.4058L16.8148 14.3888C16.6603 14.3114 16.4896 14.2717 16.3167 14.273C16.0079 14.273 15.713 14.3901 15.5083 14.5953L14.4203 15.6841C14.3738 15.7284 14.222 15.7924 14.176 15.7947C14.1634 15.7937 12.9101 15.7034 10.6028 13.3952C8.29952 11.0918 8.2018 9.83425 8.20103 9.83425C8.20232 9.76995 8.26557 9.6187 8.31057 9.57189L9.23835 8.64411C9.56518 8.31641 9.66315 7.77317 9.46926 7.35236L7.42034 3.49591C7.27145 3.18931 6.98217 3 6.66125 3C6.4342 3 6.21511 3.09414 6.04385 3.26519L3.51484 5.78926C3.27236 6.03053 3.06356 6.45236 3.01804 6.79189C2.99593 6.95419 2.54721 10.8284 7.85723 16.1407C12.3652 20.6494 15.8804 20.9998 16.8511 20.9998C16.9693 21.0013 17.0875 20.9952 17.2049 20.9815C17.5433 20.9362 17.9645 20.7279 18.2055 20.4864L20.7324 17.959C20.9386 17.7516 21.0328 17.4777 20.9898 17.2053Z" fill="white"/>
</svg>
