<svg width="32" height="32" viewBox="0 0 32 32" fill="none" xmlns="http://www.w3.org/2000/svg">
<circle cx="16" cy="16" r="13" fill="white"/>
<path fill-rule="evenodd" clip-rule="evenodd" d="M16 0C7.16344 0 0 7.16344 0 16C0 24.8366 7.16344 32 16 32C24.8366 32 32 24.8366 32 16C32 7.16344 24.8366 0 16 0ZM12.4821 7.51816C13.3924 7.47673 13.6832 7.4666 16.0007 7.4666H15.9981C18.3163 7.4666 18.6061 7.47673 19.5163 7.51816C20.4248 7.55976 21.0452 7.70358 21.5892 7.91461C22.151 8.13239 22.6257 8.42394 23.1004 8.89862C23.575 9.37293 23.8666 9.84903 24.0853 10.4103C24.295 10.9529 24.439 11.573 24.4817 12.4814C24.5226 13.3916 24.5333 13.6825 24.5333 16C24.5333 18.3176 24.5226 18.6077 24.4817 19.5179C24.439 20.426 24.295 21.0463 24.0853 21.5891C23.8666 22.1501 23.575 22.6262 23.1004 23.1005C22.6262 23.5752 22.1508 23.8675 21.5898 24.0854C21.0468 24.2965 20.426 24.4403 19.5176 24.4819C18.6073 24.5233 18.3174 24.5334 15.9997 24.5334C13.6823 24.5334 13.3916 24.5233 12.4814 24.4819C11.5731 24.4403 10.9529 24.2965 10.4099 24.0854C9.84903 23.8675 9.37293 23.5752 8.89879 23.1005C8.4243 22.6262 8.13274 22.1501 7.91461 21.5889C7.70376 21.0463 7.55994 20.4262 7.51816 19.5177C7.47691 18.6075 7.4666 18.3176 7.4666 16C7.4666 13.6825 7.47727 13.3915 7.51798 12.4812C7.55887 11.5731 7.70287 10.9529 7.91443 10.4101C8.1331 9.84903 8.42465 9.37293 8.89933 8.89862C9.37364 8.42412 9.84974 8.13256 10.411 7.91461C10.9536 7.70358 11.5737 7.55976 12.4821 7.51816ZM16 12.4444C17.9636 12.4444 19.5556 14.0362 19.5556 16C19.5556 17.9636 17.9636 19.5556 16 19.5556C14.0362 19.5556 12.4444 17.9636 12.4444 16C12.4444 14.0362 14.0362 12.4444 16 12.4444ZM21.3333 11.5556C21.3333 11.0646 20.9353 10.6667 20.4444 10.6667C19.9535 10.6667 19.5556 11.0646 19.5556 11.5556C19.5556 12.0464 19.9535 12.4444 20.4444 12.4444C20.9353 12.4444 21.3333 12.0464 21.3333 11.5556Z" fill="#1A5455"/>
</svg>