<svg width="24" height="24" viewBox="0 0 24 24" fill="none" xmlns="http://www.w3.org/2000/svg">
<path d="M2.63778 6.50033L10.9711 11.2008C11.2511 11.3583 11.6133 11.433 11.9778 11.433C12.3422 11.433 12.7044 11.3583 12.9844 11.2008L21.3178 6.50033C21.8611 6.1935 22.3744 5 21.3778 5H2.57889C1.58222 5 2.09556 6.1935 2.63778 6.50033ZM21.57 9.0705L12.9844 13.7687C12.6067 13.9763 12.3422 14.0008 11.9778 14.0008C11.6133 14.0008 11.3489 13.9763 10.9711 13.7687C10.5933 13.561 3.04556 9.4065 2.42889 9.06933C1.99556 8.83133 2 9.11017 2 9.32483V17.8333C2 18.3233 2.62889 19 3.11111 19H20.8889C21.3711 19 22 18.3233 22 17.8333V9.326C22 9.11133 22.0044 8.8325 21.57 9.0705Z" fill="#1A5455"/>
</svg>